{"title":"Kerintha(2015) - DVDScr - 1CD - XviD - Mp3 -[M2TV]","uid":12030530,"size":732206042,"categoryP":"video","categoryS":"hd___movies","magnet":"?xt=urn:btih:ff39789f9b96fa51d58cc309a574812b1d15d80a&amp;dn=Kerintha%282015%29+-+DVDScr+-+1CD+-+XviD+-+Mp3+-%5BM2TV%5D&amp;tr=udp%3A%2F%2Ftracker.openbittorrent.com%3A80&amp;tr=udp%3A%2F%2Fopen.demonii.com%3A1337&amp;tr=udp%3A%2F%2Ftracker.coppersurfer.tk%3A6969&amp;tr=udp%3A%2F%2Fexodus.desync.com%3A6969","seeders":1,"leechers":0,"uploader":"Urmit","files":10,"time":1434602552,"description":"[center][img]http://malligadu.com/wp-content/uploads/2015/06/CGvUDoYVIAIno5E.jpg[/img][/center]\n\nThank You D3SiM\n\n[center][size=6][color=blue][b]General[/b][/color][/size]\nComplete name                            : Kerintha(2015) - DVDScr - 1CD - XviD - Mp3 -[M2TV].avi\nFormat                                   : AVI\nFormat/Info                              : Audio Video Interleave\nFile size                                : 692 MiB\nDuration                                 : 2h 15mn\nOverall bit rate                         : 717 Kbps\n\n\n\n[size=6][color=blue][b]Video[/b][/color][/size]\nID                                       : 0\nFormat                                   : MPEG-4 Visual\nFormat profile                           : Advanced Simple@L5\nFormat settings, BVOP                    : 2\nFormat settings, QPel                    : No\nFormat settings, GMC                     : No warppoints\nFormat settings, Matrix                  : Custom\nCodec ID                                 : XVID\nCodec ID/Hint                            : XviD\nDuration                                 : 2h 15mn\nBit rate                                 : 631 Kbps\nWidth                                    : 640 pixels\nHeight                                   : 272 pixels\nDisplay aspect ratio                     : 2.35:1\nFrame rate                               : 25.000 fps\nColor space                              : YUV\nChroma subsampling                       : 4:2:0\nBit depth                                : 8 bits\nScan type                                : Progressive\nCompression mode                         : Lossy\nBits/(Pixel*Frame)                       : 0.145\nStream size                              : 609 MiB (88%)\nWriting library                          : XviD 1.2.1 (UTC 2008-12-04)\n\n\n[size=6][b][color=blue]Audio[/color][/b][/size]\nID                                       : 1\nFormat                                   : MPEG Audio\nFormat version                           : Version 1\nFormat profile                           : Layer 3\nMode                                     : Joint stereo\nMode extension                           : MS Stereo\nCodec ID                                 : 55\nCodec ID/Hint                            : MP3\nDuration                                 : 2h 15mn\nBit rate mode                            : Constant\nBit rate                                 : 80.0 Kbps\nChannel(s)                               : 2 channels\nSampling rate                            : 32.0 KHz\nCompression mode                         : Lossy\nStream size                              : 77.2 MiB (11%)\nAlignment                                : Aligned on interleaves\nInterleave, duration                     : 160 ms (4.00 video frames)\nInterleave, preload duration             : 216 ms\nTitle                                    : 1cd T80 2_0ch 192Kbps DELAY 0ms\nWriting library                          : LAME3.99r\nEncoding settings                        : -m j -V 4 -q 2 -lowpass 13.5 -b 80\n\n[img]http://i.imgur.com/ZolR2H1.png[/img]\n[img]http://i.imgur.com/Uq1pbGb.png[/img]\n[img]http://i.imgur.com/BjGe2zE.png[/img]\n[img]http://i.imgur.com/VTsFkZ6.png[/img]\n\n[size=8][color=red][i][b]Thanks You SaM,Ozi,Admins,Mods[/b][/i][/color][/size]\n\n\n[/center]","torrent":{"xt":"urn:btih:ff39789f9b96fa51d58cc309a574812b1d15d80a","amp;dn":"Kerintha%282015%29+-+DVDScr+-+1CD+-+XviD+-+Mp3+-%5BM2TV%5D","amp;tr":["udp%3A%2F%2Ftracker.openbittorrent.com%3A80","udp%3A%2F%2Fopen.demonii.com%3A1337","udp%3A%2F%2Ftracker.coppersurfer.tk%3A6969","udp%3A%2F%2Fexodus.desync.com%3A6969"],"infoHash":"ff39789f9b96fa51d58cc309a574812b1d15d80a","infoHashBuffer":{"type":"Buffer","data":[255,57,120,159,155,150,250,81,213,140,195,9,165,116,129,43,29,21,216,10]},"announce":[],"urlList":[]}}